<?xml version="1.0" encoding="UTF-8" standalone="no"?><!DOCTYPE svg PUBLIC "-//W3C//DTD SVG 1.1//EN" "http://www.w3.org/Graphics/SVG/1.1/DTD/svg11.dtd"><svg width="100%" height="100%" viewBox="0 0 128 128" version="1.1" xmlns="http://www.w3.org/2000/svg" xmlns:xlink="http://www.w3.org/1999/xlink" xml:space="preserve" style="fill-rule:evenodd;clip-rule:evenodd;stroke-linejoin:round;stroke-miterlimit:1.41421;"><rect id="icon" x="0" y="0" width="128" height="128" style="fill:none;"/><g><path d="M70.502,109.608c-1.022,-3.158 -2.136,-6.409 -3.251,-9.753c-1.207,-3.344 -2.322,-6.688 -3.53,-9.939l-35.669,0c-1.114,3.344 -2.322,6.688 -3.437,10.032c-1.114,3.344 -2.229,6.595 -3.251,9.753l-21.364,0c3.437,-9.846 6.688,-18.949 9.753,-27.216c3.066,-8.36 6.131,-16.163 9.01,-23.594c2.973,-7.338 5.852,-14.398 8.732,-20.993c2.879,-6.595 5.852,-13.097 8.917,-19.413l19.507,0c2.972,6.316 5.945,12.818 8.824,19.413c2.88,6.595 5.852,13.655 8.824,20.993c2.973,7.338 5.945,15.234 9.104,23.594c3.065,8.36 6.316,17.463 9.753,27.216l-21.922,0l0,-0.093Zm-24.708,-70.595c-0.465,1.3 -1.115,3.158 -2.044,5.388c-0.929,2.322 -1.857,4.923 -2.972,7.895c-1.115,2.973 -2.415,6.316 -3.808,9.846c-1.394,3.623 -2.787,7.338 -4.273,11.333l26.101,0c-1.393,-3.995 -2.786,-7.71 -4.087,-11.333c-1.3,-3.622 -2.508,-6.873 -3.715,-9.939c-1.208,-2.972 -2.23,-5.666 -3.066,-7.895c-0.836,-2.23 -1.579,-3.995 -2.136,-5.295Z" style="fill:#fff;"/><path d="M105.985,109.608c-1.021,-3.158 -2.136,-6.409 -3.251,-9.753c-1.207,-3.344 -2.322,-6.688 -3.529,-9.939l-16.534,0c0,0 -22.479,-45.423 -19.6,-52.11c2.88,-6.596 5.852,-13.098 8.917,-19.414l19.507,0c2.972,6.316 5.945,12.818 8.824,19.414c2.88,6.595 5.852,13.654 8.825,20.992c2.972,7.338 5.945,15.234 9.103,23.594c3.065,8.36 6.316,17.463 9.753,27.216l-22.015,0l0,0Zm-24.615,-70.595c-0.464,1.3 -1.115,3.158 -2.043,5.388c-0.929,2.322 -1.858,4.923 -2.973,7.895c-1.115,2.973 -2.415,6.316 -3.808,9.846c-1.394,3.623 3.715,11.333 3.715,11.333l18.113,0c-1.393,-3.995 -2.786,-7.71 -4.087,-11.333c-1.3,-3.622 -2.508,-6.873 -3.715,-9.939c-1.208,-2.972 -2.229,-5.666 -3.065,-7.895c-0.929,-2.23 -1.672,-3.995 -2.137,-5.295Z" style="fill:#fff;"/></g></svg>