<?xml version="1.0" encoding="utf-8"?>
<!-- Generator: Adobe Illustrator 21.1.0, SVG Export Plug-In . SVG Version: 6.00 Build 0)  -->
<svg version="1.1" id="Ebene_1" xmlns="http://www.w3.org/2000/svg" xmlns:xlink="http://www.w3.org/1999/xlink" x="0px" y="0px"
	 viewBox="0 0 566.9 138.5" style="enable-background:new 0 0 566.9 138.5;" xml:space="preserve">
<style type="text/css">
	.st0{fill:#FFFFFF;}
	.st1{font-family:'Ubuntu-Bold';}
	.st2{font-size:69.2305px;}
</style>
<g>
	<g>
		<path class="st0" d="M313.5,10.4c17.2,0,31.2,14,31.2,31.2v55.4c0,17.2-14,31.2-31.2,31.2h-55.4c-17.2,0-31.2-14-31.2-31.2V41.5
			c0-17.2,14-31.2,31.2-31.2H313.5 M313.5,0h-55.4c-22.9,0-41.5,18.6-41.5,41.5v55.4c0,22.9,18.6,41.5,41.5,41.5h55.4
			c22.9,0,41.5-18.6,41.5-41.5V41.5C355.1,18.6,336.5,0,313.5,0L313.5,0z"/>
	</g>
	<text transform="matrix(1 0 0 1 6.714570e-04 91.7334)" class="st0 st1 st2">D</text>
	<text transform="matrix(1 0 0 1 123.4616 91.7334)" class="st0 st1 st2">R</text>
	<g>
		<g>
			<path class="st0" d="M288.9,91.7c-0.5-1.7-1.1-3.4-1.7-5.1c-0.6-1.8-1.2-3.5-1.8-5.2h-18.7c-0.6,1.8-1.2,3.5-1.8,5.3
				c-0.6,1.8-1.2,3.5-1.7,5.1h-11.2c1.8-5.2,3.5-9.9,5.1-14.3c1.6-4.4,3.2-8.5,4.8-12.4c1.6-3.9,3.1-7.6,4.6-11
				c1.5-3.5,3.1-6.9,4.7-10.2h10.2c1.6,3.3,3.1,6.7,4.7,10.2c1.5,3.5,3.1,7.2,4.6,11c1.6,3.9,3.1,8,4.8,12.4
				c1.6,4.4,3.3,9.2,5.1,14.3H288.9z M276,54.6c-0.2,0.7-0.6,1.6-1.1,2.8c-0.5,1.2-1,2.6-1.6,4.2c-0.6,1.6-1.3,3.3-2,5.2
				c-0.7,1.9-1.5,3.9-2.2,5.9h13.7c-0.7-2.1-1.4-4.1-2.1-6c-0.7-1.9-1.3-3.6-2-5.2c-0.6-1.6-1.2-3-1.6-4.2
				C276.6,56.2,276.3,55.3,276,54.6z"/>
		</g>
	</g>
	<g>
		<g>
			<path class="st0" d="M307.6,91.7c-0.5-1.7-1.1-3.4-1.7-5.1c-0.6-1.8-1.2-3.5-1.8-5.2h-8.7c0,0-11.8-23.9-10.3-27.4
				c1.5-3.5,3.1-6.9,4.7-10.2H300c1.6,3.3,3.1,6.7,4.7,10.2c1.5,3.5,3.1,7.2,4.6,11c1.6,3.9,3.1,8,4.8,12.4
				c1.6,4.4,3.3,9.2,5.1,14.3H307.6z M294.6,54.6c-0.2,0.7-0.6,1.6-1.1,2.8c-0.5,1.2-1,2.6-1.6,4.2c-0.6,1.6-1.3,3.3-2,5.2
				c-0.7,1.9,2,5.9,2,5.9h9.5c-0.7-2.1-1.4-4.1-2.1-6c-0.7-1.9-1.3-3.6-2-5.2c-0.6-1.6-1.2-3-1.6-4.2
				C295.3,56.2,294.9,55.3,294.6,54.6z"/>
		</g>
	</g>
	<text transform="matrix(1 0 0 1 524.4206 91.7334)" class="st0 st1 st2">T</text>
	<text transform="matrix(1 0 0 1 403.8444 91.7334)" class="st0 st1 st2">F</text>
</g>
</svg>
